<svg width="748" height="748" viewBox="0 0 748 748" fill="none" xmlns="http://www.w3.org/2000/svg">
<circle cx="376.446" cy="372.553" r="7.85373" fill="#215488" fill-opacity="0.44"/>
<circle cx="354.042" cy="362.498" r="7.46105" transform="rotate(-63 354.042 362.498)" fill="#215488" fill-opacity="0.44"/>
<circle cx="355.351" cy="387.471" r="7.46105" transform="rotate(-123 355.351 387.471)" fill="#215488" fill-opacity="0.44"/>
<circle cx="377.499" cy="398.985" r="7.46105" transform="rotate(177 377.499 398.985)" fill="#215488" fill-opacity="0.44"/>
<circle cx="398.491" cy="385.427" r="7.46105" transform="rotate(117 398.491 385.427)" fill="#215488" fill-opacity="0.44"/>
<circle cx="397.308" cy="360.448" r="7.46105" transform="rotate(57 397.308 360.448)" fill="#215488" fill-opacity="0.44"/>
<circle cx="375.131" cy="349.027" r="7.46105" transform="rotate(-3 375.131 349.027)" fill="#215488" fill-opacity="0.44"/>
<circle cx="347.812" cy="334.606" r="7.06836" transform="rotate(-36 347.812 334.606)" fill="#215488" fill-opacity="0.44"/>
<circle cx="331.94" cy="354.104" r="7.06836" transform="rotate(-66 331.94 354.104)" fill="#215488" fill-opacity="0.44"/>
<circle cx="327.994" cy="378.965" r="7.06836" transform="rotate(-96 327.994 378.965)" fill="#215488" fill-opacity="0.44"/>
<circle cx="336.893" cy="402.418" r="7.06836" transform="rotate(-126 336.893 402.418)" fill="#215488" fill-opacity="0.44"/>
<circle cx="356.39" cy="418.29" r="7.06836" transform="rotate(-156 356.39 418.29)" fill="#215488" fill-opacity="0.44"/>
<circle cx="381.261" cy="422.328" r="7.06836" transform="rotate(174 381.261 422.328)" fill="#215488" fill-opacity="0.44"/>
<circle cx="404.705" cy="413.338" r="7.06836" transform="rotate(144 404.705 413.338)" fill="#215488" fill-opacity="0.44"/>
<circle cx="420.576" cy="393.841" r="7.06836" transform="rotate(114 420.576 393.841)" fill="#215488" fill-opacity="0.44"/>
<circle cx="424.624" cy="369.06" r="7.06836" transform="rotate(84 424.624 369.06)" fill="#215488" fill-opacity="0.44"/>
<circle cx="415.624" cy="345.526" r="7.06836" transform="rotate(54 415.624 345.526)" fill="#215488" fill-opacity="0.44"/>
<circle cx="396.127" cy="329.654" r="7.06836" transform="rotate(24 396.127 329.654)" fill="#215488" fill-opacity="0.44"/>
<circle cx="371.356" cy="325.698" r="7.06836" transform="rotate(-6 371.356 325.698)" fill="#215488" fill-opacity="0.44"/>
<circle cx="341.4" cy="310.844" r="6.67567" transform="rotate(-29 341.4 310.844)" fill="#215488" fill-opacity="0.44"/>
<circle cx="321.887" cy="326.563" r="6.67567" transform="rotate(-49 321.887 326.563)" fill="#215488" fill-opacity="0.44"/>
<circle cx="308.954" cy="348.017" r="6.67567" transform="rotate(-69 308.954 348.017)" fill="#215488" fill-opacity="0.44"/>
<circle cx="304.161" cy="372.621" r="6.67567" transform="rotate(-89 304.161 372.621)" fill="#215488" fill-opacity="0.44"/>
<circle cx="308.08" cy="397.362" r="6.67567" transform="rotate(-109 308.08 397.362)" fill="#215488" fill-opacity="0.44"/>
<circle cx="320.114" cy="419.278" r="6.67567" transform="rotate(-129 320.114 419.278)" fill="#215488" fill-opacity="0.44"/>
<circle cx="338.985" cy="435.74" r="6.67567" transform="rotate(-149 338.985 435.74)" fill="#215488" fill-opacity="0.44"/>
<circle cx="362.374" cy="444.771" r="6.67567" transform="rotate(-169 362.374 444.771)" fill="#215488" fill-opacity="0.44"/>
<circle cx="387.46" cy="445.281" r="6.67567" transform="rotate(171 387.46 445.281)" fill="#215488" fill-opacity="0.44"/>
<circle cx="411.119" cy="437.138" r="6.67567" transform="rotate(151 411.119 437.138)" fill="#215488" fill-opacity="0.44"/>
<circle cx="430.596" cy="421.393" r="6.67567" transform="rotate(131 430.596 421.393)" fill="#215488" fill-opacity="0.44"/>
<circle cx="443.541" cy="399.948" r="6.67567" transform="rotate(111 443.541 399.948)" fill="#215488" fill-opacity="0.44"/>
<circle cx="448.394" cy="375.388" r="6.67567" transform="rotate(91 448.394 375.388)" fill="#215488" fill-opacity="0.44"/>
<circle cx="444.517" cy="350.639" r="6.67567" transform="rotate(71 444.517 350.639)" fill="#215488" fill-opacity="0.44"/>
<circle cx="432.381" cy="328.687" r="6.67567" transform="rotate(51 432.381 328.687)" fill="#215488" fill-opacity="0.44"/>
<circle cx="413.498" cy="312.216" r="6.67567" transform="rotate(31 413.498 312.216)" fill="#215488" fill-opacity="0.44"/>
<circle cx="390.145" cy="303.211" r="6.67567" transform="rotate(11 390.145 303.211)" fill="#215488" fill-opacity="0.44"/>
<circle cx="365.14" cy="302.76" r="6.67567" transform="rotate(-9 365.14 302.76)" fill="#215488" fill-opacity="0.44"/>
<circle cx="332.702" cy="287.602" r="6.28299" transform="rotate(-27 332.702 287.602)" fill="#215488" fill-opacity="0.44"/>
<circle cx="311.86" cy="300.698" r="6.28299" transform="rotate(-42 311.86 300.698)" fill="#215488" fill-opacity="0.44"/>
<circle cx="295.42" cy="318.798" r="6.28299" transform="rotate(-57 295.42 318.798)" fill="#215488" fill-opacity="0.44"/>
<circle cx="284.501" cy="340.668" r="6.28299" transform="rotate(-72 284.501 340.668)" fill="#215488" fill-opacity="0.44"/>
<circle cx="279.857" cy="364.854" r="6.28299" transform="rotate(-87 279.857 364.854)" fill="#215488" fill-opacity="0.44"/>
<circle cx="281.787" cy="389.64" r="6.28299" transform="rotate(-102 281.787 389.64)" fill="#215488" fill-opacity="0.44"/>
<circle cx="289.017" cy="413.557" r="6.28299" transform="rotate(-117 289.017 413.557)" fill="#215488" fill-opacity="0.44"/>
<circle cx="302.205" cy="434.787" r="6.28299" transform="rotate(-132 302.205 434.787)" fill="#215488" fill-opacity="0.44"/>
<circle cx="320.452" cy="451.883" r="6.28299" transform="rotate(-147 320.452 451.883)" fill="#215488" fill-opacity="0.44"/>
<circle cx="342.515" cy="463.68" r="6.28299" transform="rotate(-162 342.515 463.68)" fill="#215488" fill-opacity="0.44"/>
<circle cx="366.891" cy="469.373" r="6.28299" transform="rotate(-177 366.891 469.373)" fill="#215488" fill-opacity="0.44"/>
<circle cx="391.918" cy="468.576" r="6.28299" transform="rotate(168 391.918 468.576)" fill="#215488" fill-opacity="0.44"/>
<circle cx="415.593" cy="460.213" r="6.28299" transform="rotate(153 415.593 460.213)" fill="#215488" fill-opacity="0.44"/>
<circle cx="436.602" cy="445.983" r="6.28299" transform="rotate(138 436.602 445.983)" fill="#215488" fill-opacity="0.44"/>
<circle cx="453.511" cy="426.856" r="6.28299" transform="rotate(123 453.511 426.856)" fill="#215488" fill-opacity="0.44"/>
<circle cx="465.167" cy="404.135" r="6.28299" transform="rotate(108 465.167 404.135)" fill="#215488" fill-opacity="0.44"/>
<circle cx="470.779" cy="379.37" r="6.28299" transform="rotate(93 470.779 379.37)" fill="#215488" fill-opacity="0.44"/>
<circle cx="469.96" cy="354.247" r="6.28299" transform="rotate(78 469.96 354.247)" fill="#215488" fill-opacity="0.44"/>
<circle cx="461.618" cy="330.667" r="6.28299" transform="rotate(63 461.618 330.667)" fill="#215488" fill-opacity="0.44"/>
<circle cx="447.471" cy="310.049" r="6.28299" transform="rotate(48 447.471 310.049)" fill="#215488" fill-opacity="0.44"/>
<circle cx="428.484" cy="293.798" r="6.28299" transform="rotate(33 428.484 293.798)" fill="#215488" fill-opacity="0.44"/>
<circle cx="405.95" cy="283.02" r="6.28299" transform="rotate(18 405.95 283.02)" fill="#215488" fill-opacity="0.44"/>
<circle cx="381.406" cy="278.451" r="6.28299" transform="rotate(3 381.406 278.451)" fill="#215488" fill-opacity="0.44"/>
<circle cx="356.524" cy="280.402" r="6.28299" transform="rotate(-12 356.524 280.402)" fill="#215488" fill-opacity="0.44"/>
<circle cx="321.953" cy="266.65" r="5.8903" transform="rotate(-27 321.953 266.65)" fill="#215488" fill-opacity="0.44"/>
<circle cx="300.32" cy="277.617" r="5.8903" transform="rotate(-39 300.32 277.617)" fill="#215488" fill-opacity="0.44"/>
<circle cx="282.227" cy="293.602" r="5.8903" transform="rotate(-51 282.227 293.602)" fill="#215488" fill-opacity="0.44"/>
<circle cx="268.253" cy="313.107" r="5.8903" transform="rotate(-63 268.253 313.107)" fill="#215488" fill-opacity="0.44"/>
<circle cx="259.007" cy="335.277" r="5.8903" transform="rotate(-75 259.007 335.277)" fill="#215488" fill-opacity="0.44"/>
<circle cx="254.894" cy="359.146" r="5.8903" transform="rotate(-87 254.894 359.146)" fill="#215488" fill-opacity="0.44"/>
<circle cx="256.093" cy="383.669" r="5.8903" transform="rotate(-99 256.093 383.669)" fill="#215488" fill-opacity="0.44"/>
<circle cx="262.546" cy="407.754" r="5.8903" transform="rotate(-111 262.546 407.754)" fill="#215488" fill-opacity="0.44"/>
<circle cx="271.135" cy="431.108" r="5.8903" transform="rotate(-123 271.135 431.108)" fill="#215488" fill-opacity="0.44"/>
<circle cx="285.286" cy="451.714" r="5.8903" transform="rotate(-135 285.286 451.714)" fill="#215488" fill-opacity="0.44"/>
<circle cx="303.421" cy="468.929" r="5.8903" transform="rotate(-147 303.421 468.929)" fill="#215488" fill-opacity="0.44"/>
<circle cx="324.748" cy="482.001" r="5.8903" transform="rotate(-159 324.748 482.001)" fill="#215488" fill-opacity="0.44"/>
<circle cx="348.334" cy="490.357" r="5.8903" transform="rotate(-171 348.334 490.357)" fill="#215488" fill-opacity="0.44"/>
<circle cx="373.149" cy="493.635" r="5.8903" transform="rotate(177 373.149 493.635)" fill="#215488" fill-opacity="0.44"/>
<circle cx="398.108" cy="491.689" r="5.8903" transform="rotate(165 398.108 491.689)" fill="#215488" fill-opacity="0.44"/>
<circle cx="421.566" cy="482.708" r="5.8903" transform="rotate(153 421.566 482.708)" fill="#215488" fill-opacity="0.44"/>
<circle cx="443.052" cy="468.98" r="5.8903" transform="rotate(141 443.052 468.98)" fill="#215488" fill-opacity="0.44"/>
<circle cx="461.628" cy="451.107" r="5.8903" transform="rotate(129 461.628 451.107)" fill="#215488" fill-opacity="0.44"/>
<circle cx="476.48" cy="429.87" r="5.8903" transform="rotate(117 476.48 429.87)" fill="#215488" fill-opacity="0.44"/>
<circle cx="486.96" cy="406.196" r="5.8903" transform="rotate(105 486.96 406.196)" fill="#215488" fill-opacity="0.44"/>
<circle cx="492.611" cy="381.121" r="5.8903" transform="rotate(93 492.611 381.121)" fill="#215488" fill-opacity="0.44"/>
<circle cx="493.184" cy="355.74" r="5.8903" transform="rotate(81 493.184 355.74)" fill="#215488" fill-opacity="0.44"/>
<circle cx="487.69" cy="331.398" r="5.8903" transform="rotate(69 487.69 331.398)" fill="#215488" fill-opacity="0.44"/>
<circle cx="476.37" cy="309.159" r="5.8903" transform="rotate(57 476.37 309.159)" fill="#215488" fill-opacity="0.44"/>
<circle cx="460.681" cy="289.76" r="5.8903" transform="rotate(45 460.681 289.76)" fill="#215488" fill-opacity="0.44"/>
<circle cx="441.311" cy="274.047" r="5.8903" transform="rotate(33 441.311 274.047)" fill="#215488" fill-opacity="0.44"/>
<circle cx="419.107" cy="262.709" r="5.8903" transform="rotate(21 419.107 262.709)" fill="#215488" fill-opacity="0.44"/>
<circle cx="395.038" cy="256.24" r="5.8903" transform="rotate(9 395.038 256.24)" fill="#215488" fill-opacity="0.44"/>
<circle cx="370.156" cy="254.923" r="5.8903" transform="rotate(-3 370.156 254.923)" fill="#215488" fill-opacity="0.44"/>
<circle cx="345.549" cy="258.815" r="5.8903" transform="rotate(-15 345.549 258.815)" fill="#215488" fill-opacity="0.44"/>
<circle cx="309.054" cy="247.036" r="5.49761" transform="rotate(-28 309.054 247.036)" fill="#215488" fill-opacity="0.44"/>
<circle cx="286.912" cy="256.77" r="5.49761" transform="rotate(-38 286.912 256.77)" fill="#215488" fill-opacity="0.44"/>
<circle cx="267.981" cy="271.583" r="5.49761" transform="rotate(-48 267.981 271.583)" fill="#215488" fill-opacity="0.44"/>
<circle cx="252.347" cy="289.512" r="5.49761" transform="rotate(-58 252.347 289.512)" fill="#215488" fill-opacity="0.44"/>
<circle cx="240.483" cy="310.012" r="5.49761" transform="rotate(-68 240.483 310.012)" fill="#215488" fill-opacity="0.44"/>
<circle cx="232.75" cy="332.459" r="5.49761" transform="rotate(-78 232.75 332.459)" fill="#215488" fill-opacity="0.44"/>
<circle cx="229.383" cy="356.174" r="5.49761" transform="rotate(-88 229.383 356.174)" fill="#215488" fill-opacity="0.44"/>
<circle cx="230.417" cy="380.221" r="5.49761" transform="rotate(-98 230.417 380.221)" fill="#215488" fill-opacity="0.44"/>
<circle cx="235.953" cy="404.286" r="5.49761" transform="rotate(-108 235.953 404.286)" fill="#215488" fill-opacity="0.44"/>
<circle cx="244.852" cy="427.648" r="5.49761" transform="rotate(-118 244.852 427.648)" fill="#215488" fill-opacity="0.44"/>
<circle cx="254.695" cy="450.376" r="5.49761" transform="rotate(-128 254.695 450.376)" fill="#215488" fill-opacity="0.44"/>
<circle cx="269.788" cy="470.284" r="5.49761" transform="rotate(-138 269.788 470.284)" fill="#215488" fill-opacity="0.44"/>
<circle cx="288.122" cy="487.27" r="5.49761" transform="rotate(-148 288.122 487.27)" fill="#215488" fill-opacity="0.44"/>
<circle cx="309.14" cy="500.817" r="5.49761" transform="rotate(-158 309.14 500.817)" fill="#215488" fill-opacity="0.44"/>
<circle cx="332.203" cy="510.516" r="5.49761" transform="rotate(-168 332.203 510.516)" fill="#215488" fill-opacity="0.44"/>
<circle cx="356.61" cy="516.07" r="5.49761" transform="rotate(-178 356.61 516.07)" fill="#215488" fill-opacity="0.44"/>
<circle cx="381.62" cy="517.312" r="5.49761" transform="rotate(172 381.62 517.312)" fill="#215488" fill-opacity="0.44"/>
<circle cx="406.473" cy="514.202" r="5.49761" transform="rotate(162 406.473 514.202)" fill="#215488" fill-opacity="0.44"/>
<circle cx="429.55" cy="504.428" r="5.49761" transform="rotate(152 429.55 504.428)" fill="#215488" fill-opacity="0.44"/>
<circle cx="451.015" cy="490.694" r="5.49761" transform="rotate(142 451.015 490.694)" fill="#215488" fill-opacity="0.44"/>
<circle cx="470.213" cy="473.418" r="5.49761" transform="rotate(132 470.213 473.418)" fill="#215488" fill-opacity="0.44"/>
<circle cx="486.562" cy="453.125" r="5.49761" transform="rotate(122 486.562 453.125)" fill="#215488" fill-opacity="0.44"/>
<circle cx="499.566" cy="430.431" r="5.49761" transform="rotate(112 499.566 430.431)" fill="#215488" fill-opacity="0.44"/>
<circle cx="508.829" cy="406.028" r="5.49761" transform="rotate(102 508.829 406.028)" fill="#215488" fill-opacity="0.44"/>
<circle cx="514.069" cy="380.654" r="5.49761" transform="rotate(92 514.069 380.654)" fill="#215488" fill-opacity="0.44"/>
<circle cx="515.127" cy="355.082" r="5.49761" transform="rotate(82 515.127 355.082)" fill="#215488" fill-opacity="0.44"/>
<circle cx="511.972" cy="330.089" r="5.49761" transform="rotate(72 511.972 330.089)" fill="#215488" fill-opacity="0.44"/>
<circle cx="502.243" cy="307.152" r="5.49761" transform="rotate(62 502.243 307.152)" fill="#215488" fill-opacity="0.44"/>
<circle cx="488.692" cy="286.25" r="5.49761" transform="rotate(52 488.692 286.25)" fill="#215488" fill-opacity="0.44"/>
<circle cx="471.73" cy="268.018" r="5.49761" transform="rotate(42 471.73 268.018)" fill="#215488" fill-opacity="0.44"/>
<circle cx="451.873" cy="253.01" r="5.49761" transform="rotate(32 451.873 253.01)" fill="#215488" fill-opacity="0.44"/>
<circle cx="429.724" cy="241.682" r="5.49761" transform="rotate(22 429.724 241.682)" fill="#215488" fill-opacity="0.44"/>
<circle cx="405.957" cy="234.377" r="5.49761" transform="rotate(12 405.957 234.377)" fill="#215488" fill-opacity="0.44"/>
<circle cx="381.292" cy="231.32" r="5.49761" transform="rotate(2 381.292 231.32)" fill="#215488" fill-opacity="0.44"/>
<circle cx="356.481" cy="232.601" r="5.49761" transform="rotate(-8 356.481 232.601)" fill="#215488" fill-opacity="0.44"/>
<circle cx="332.276" cy="238.182" r="5.49761" transform="rotate(-18 332.276 238.182)" fill="#215488" fill-opacity="0.44"/>
<circle cx="293.86" cy="228.229" r="5.10493" transform="rotate(-29.5714 293.86 228.229)" fill="#215488" fill-opacity="0.44"/>
<circle cx="271.527" cy="237.748" r="5.10493" transform="rotate(-38.1429 271.527 237.748)" fill="#215488" fill-opacity="0.44"/>
<circle cx="252.176" cy="251.974" r="5.10493" transform="rotate(-46.7143 252.176 251.974)" fill="#215488" fill-opacity="0.44"/>
<circle cx="235.6" cy="268.93" r="5.10493" transform="rotate(-55.2857 235.6 268.93)" fill="#215488" fill-opacity="0.44"/>
<circle cx="221.943" cy="287.645" r="5.10493" transform="rotate(-63.8571 221.943 287.645)" fill="#215488" fill-opacity="0.44"/>
<circle cx="211.926" cy="308.78" r="5.10493" transform="rotate(-72.4286 211.926 308.78)" fill="#215488" fill-opacity="0.44"/>
<circle cx="205.584" cy="331.375" r="5.10493" transform="rotate(-81 205.584 331.375)" fill="#215488" fill-opacity="0.44"/>
<circle cx="203.059" cy="354.925" r="5.10493" transform="rotate(-89.5714 203.059 354.925)" fill="#215488" fill-opacity="0.44"/>
<circle cx="204.407" cy="378.904" r="5.10493" transform="rotate(-98.1429 204.407 378.904)" fill="#215488" fill-opacity="0.44"/>
<circle cx="209.598" cy="402.776" r="5.10493" transform="rotate(-106.714 209.598 402.776)" fill="#215488" fill-opacity="0.44"/>
<circle cx="217.133" cy="426.43" r="5.10493" transform="rotate(-115.286 217.133 426.43)" fill="#215488" fill-opacity="0.44"/>
<circle cx="226.965" cy="449.29" r="5.10493" transform="rotate(-123.857 226.965 449.29)" fill="#215488" fill-opacity="0.44"/>
<circle cx="239.432" cy="470.741" r="5.10493" transform="rotate(-132.429 239.432 470.741)" fill="#215488" fill-opacity="0.44"/>
<circle cx="255.364" cy="489.879" r="5.10492" transform="rotate(-141 255.364 489.879)" fill="#215488" fill-opacity="0.44"/>
<circle cx="274.001" cy="506.432" r="5.10493" transform="rotate(-149.571 274.001 506.432)" fill="#215488" fill-opacity="0.44"/>
<circle cx="294.926" cy="520.028" r="5.10493" transform="rotate(-158.143 294.926 520.028)" fill="#215488" fill-opacity="0.44"/>
<circle cx="317.672" cy="530.365" r="5.10493" transform="rotate(-166.714 317.672 530.365)" fill="#215488" fill-opacity="0.44"/>
<circle cx="341.731" cy="537.213" r="5.10493" transform="rotate(-175.286 341.731 537.213)" fill="#215488" fill-opacity="0.44"/>
<circle cx="366.565" cy="540.417" r="5.10493" transform="rotate(176.143 366.565 540.417)" fill="#215488" fill-opacity="0.44"/>
<circle cx="391.62" cy="539.906" r="5.10493" transform="rotate(167.571 391.62 539.906)" fill="#215488" fill-opacity="0.44"/>
<circle cx="416.336" cy="535.693" r="5.10493" transform="rotate(159 416.336 535.693)" fill="#215488" fill-opacity="0.44"/>
<circle cx="438.868" cy="525.068" r="5.10493" transform="rotate(150.429 438.868 525.068)" fill="#215488" fill-opacity="0.44"/>
<circle cx="460.005" cy="511.071" r="5.10493" transform="rotate(141.857 460.005 511.071)" fill="#215488" fill-opacity="0.44"/>
<circle cx="479.275" cy="494.016" r="5.10493" transform="rotate(133.286 479.275 494.016)" fill="#215488" fill-opacity="0.44"/>
<circle cx="496.249" cy="474.282" r="5.10493" transform="rotate(124.714 496.249 474.282)" fill="#215488" fill-opacity="0.44"/>
<circle cx="510.546" cy="452.31" r="5.10493" transform="rotate(116.143 510.546 452.31)" fill="#215488" fill-opacity="0.44"/>
<circle cx="521.848" cy="428.593" r="5.10493" transform="rotate(107.571 521.848 428.593)" fill="#215488" fill-opacity="0.44"/>
<circle cx="529.901" cy="403.659" r="5.10493" transform="rotate(99 529.901 403.659)" fill="#215488" fill-opacity="0.44"/>
<circle cx="534.526" cy="378.064" r="5.10493" transform="rotate(90.4286 534.526 378.064)" fill="#215488" fill-opacity="0.44"/>
<circle cx="535.621" cy="352.382" r="5.10493" transform="rotate(81.8571 535.621 352.382)" fill="#215488" fill-opacity="0.44"/>
<circle cx="533.159" cy="327.186" r="5.10493" transform="rotate(73.2857 533.159 327.186)" fill="#215488" fill-opacity="0.44"/>
<circle cx="525.719" cy="303.496" r="5.10493" transform="rotate(64.7143 525.719 303.496)" fill="#215488" fill-opacity="0.44"/>
<circle cx="513.467" cy="281.841" r="5.10493" transform="rotate(56.1429 513.467 281.841)" fill="#215488" fill-opacity="0.44"/>
<circle cx="498.154" cy="262.248" r="5.10493" transform="rotate(47.5714 498.154 262.248)" fill="#215488" fill-opacity="0.44"/>
<circle cx="480.304" cy="245.085" r="5.10492" transform="rotate(39 480.304 245.085)" fill="#215488" fill-opacity="0.44"/>
<circle cx="459.938" cy="230.878" r="5.10493" transform="rotate(30.4286 459.938 230.878)" fill="#215488" fill-opacity="0.44"/>
<circle cx="437.707" cy="219.872" r="5.10493" transform="rotate(21.8571 437.707 219.872)" fill="#215488" fill-opacity="0.44"/>
<circle cx="414.108" cy="212.312" r="5.10493" transform="rotate(13.2857 414.108 212.312)" fill="#215488" fill-opacity="0.44"/>
<circle cx="389.667" cy="208.366" r="5.10493" transform="rotate(4.71428 389.667 208.366)" fill="#215488" fill-opacity="0.44"/>
<circle cx="364.931" cy="208.123" r="5.10493" transform="rotate(-3.85714 364.931 208.123)" fill="#215488" fill-opacity="0.44"/>
<circle cx="340.452" cy="211.588" r="5.10493" transform="rotate(-12.4286 340.452 211.588)" fill="#215488" fill-opacity="0.44"/>
<circle cx="316.777" cy="218.684" r="5.10493" transform="rotate(-21 316.777 218.684)" fill="#215488" fill-opacity="0.44"/>
<circle cx="276.106" cy="209.751" r="4.71224" transform="rotate(-31.5 276.106 209.751)" fill="#215488" fill-opacity="0.44"/>
<circle cx="254.16" cy="220.406" r="4.71224" transform="rotate(-39 254.16 220.406)" fill="#215488" fill-opacity="0.44"/>
<circle cx="234.584" cy="234.316" r="4.71224" transform="rotate(-46.5 234.584 234.316)" fill="#215488" fill-opacity="0.44"/>
<circle cx="217.461" cy="250.678" r="4.71224" transform="rotate(-54 217.461 250.678)" fill="#215488" fill-opacity="0.44"/>
<circle cx="203.058" cy="269.152" r="4.71224" transform="rotate(-61.5 203.058 269.152)" fill="#215488" fill-opacity="0.44"/>
<circle cx="191.623" cy="289.422" r="4.71224" transform="rotate(-69 191.623 289.422)" fill="#215488" fill-opacity="0.44"/>
<circle cx="183.349" cy="311.141" r="4.71224" transform="rotate(-76.5 183.349 311.141)" fill="#215488" fill-opacity="0.44"/>
<circle cx="178.38" cy="333.938" r="4.71224" transform="rotate(-84 178.38 333.938)" fill="#215488" fill-opacity="0.44"/>
<circle cx="176.799" cy="357.422" r="4.71224" transform="rotate(-91.5 176.799 357.422)" fill="#215488" fill-opacity="0.44"/>
<circle cx="178.635" cy="381.193" r="4.71224" transform="rotate(-99 178.635 381.193)" fill="#215488" fill-opacity="0.44"/>
<circle cx="183.856" cy="404.842" r="4.71224" transform="rotate(-106.5 183.856 404.842)" fill="#215488" fill-opacity="0.44"/>
<circle cx="192.371" cy="427.966" r="4.71224" transform="rotate(-114 192.371 427.966)" fill="#215488" fill-opacity="0.44"/>
<circle cx="201.583" cy="451.062" r="4.71224" transform="rotate(-121.5 201.583 451.062)" fill="#215488" fill-opacity="0.44"/>
<circle cx="212.431" cy="473.444" r="4.71224" transform="rotate(-129 212.431 473.444)" fill="#215488" fill-opacity="0.44"/>
<circle cx="227.054" cy="494.157" r="4.71224" transform="rotate(-136.5 227.054 494.157)" fill="#215488" fill-opacity="0.44"/>
<circle cx="243.996" cy="512.49" r="4.71224" transform="rotate(-144 243.996 512.49)" fill="#215488" fill-opacity="0.44"/>
<circle cx="263.204" cy="528.456" r="4.71224" transform="rotate(-151.5 263.204 528.456)" fill="#215488" fill-opacity="0.44"/>
<circle cx="284.35" cy="541.781" r="4.71224" transform="rotate(-159 284.35 541.781)" fill="#215488" fill-opacity="0.44"/>
<circle cx="307.071" cy="552.238" r="4.71224" transform="rotate(-166.5 307.071 552.238)" fill="#215488" fill-opacity="0.44"/>
<circle cx="330.979" cy="559.646" r="4.71224" transform="rotate(-174 330.979 559.646)" fill="#215488" fill-opacity="0.44"/>
<circle cx="355.666" cy="563.881" r="4.71224" transform="rotate(178.5 355.666 563.881)" fill="#215488" fill-opacity="0.44"/>
<circle cx="380.708" cy="564.869" r="4.71224" transform="rotate(171 380.708 564.869)" fill="#215488" fill-opacity="0.44"/>
<circle cx="405.677" cy="562.592" r="4.71224" transform="rotate(163.5 405.677 562.592)" fill="#215488" fill-opacity="0.44"/>
<circle cx="430.146" cy="557.092" r="4.71224" transform="rotate(156 430.146 557.092)" fill="#215488" fill-opacity="0.44"/>
<circle cx="452.223" cy="545.493" r="4.71224" transform="rotate(148.5 452.223 545.493)" fill="#215488" fill-opacity="0.44"/>
<circle cx="473.002" cy="530.962" r="4.71224" transform="rotate(141 473.002 530.962)" fill="#215488" fill-opacity="0.44"/>
<circle cx="492.129" cy="513.747" r="4.71224" transform="rotate(133.5 492.129 513.747)" fill="#215488" fill-opacity="0.44"/>
<circle cx="509.277" cy="494.144" r="4.71224" transform="rotate(126 509.277 494.144)" fill="#215488" fill-opacity="0.44"/>
<circle cx="524.153" cy="472.487" r="4.71224" transform="rotate(118.5 524.153 472.487)" fill="#215488" fill-opacity="0.44"/>
<circle cx="536.501" cy="449.147" r="4.71224" transform="rotate(111 536.501 449.147)" fill="#215488" fill-opacity="0.44"/>
<circle cx="546.11" cy="424.523" r="4.71224" transform="rotate(103.5 546.11 424.523)" fill="#215488" fill-opacity="0.44"/>
<circle cx="552.817" cy="399.037" r="4.71224" transform="rotate(96 552.817 399.037)" fill="#215488" fill-opacity="0.44"/>
<circle cx="556.505" cy="373.125" r="4.71224" transform="rotate(88.5 556.505 373.125)" fill="#215488" fill-opacity="0.44"/>
<circle cx="557.113" cy="347.229" r="4.71224" transform="rotate(81 557.113 347.229)" fill="#215488" fill-opacity="0.44"/>
<circle cx="554.63" cy="321.795" r="4.71224" transform="rotate(73.5 554.63 321.795)" fill="#215488" fill-opacity="0.44"/>
<circle cx="549.098" cy="297.255" r="4.71224" transform="rotate(66 549.098 297.255)" fill="#215488" fill-opacity="0.44"/>
<circle cx="537.531" cy="275.249" r="4.71224" transform="rotate(58.5 537.531 275.249)" fill="#215488" fill-opacity="0.44"/>
<circle cx="523.207" cy="254.936" r="4.71224" transform="rotate(51 523.207 254.936)" fill="#215488" fill-opacity="0.44"/>
<circle cx="506.206" cy="236.736" r="4.71224" transform="rotate(43.5 506.206 236.736)" fill="#215488" fill-opacity="0.44"/>
<circle cx="487.159" cy="220.809" r="4.71224" transform="rotate(36 487.159 220.809)" fill="#215488" fill-opacity="0.44"/>
<circle cx="466.217" cy="207.504" r="4.71224" transform="rotate(28.5 466.217 207.504)" fill="#215488" fill-opacity="0.44"/>
<circle cx="443.74" cy="197.052" r="4.71224" transform="rotate(21 443.74 197.052)" fill="#215488" fill-opacity="0.44"/>
<circle cx="420.11" cy="189.629" r="4.71224" transform="rotate(13.5 420.11 189.629)" fill="#215488" fill-opacity="0.44"/>
<circle cx="395.734" cy="185.363" r="4.71224" transform="rotate(6 395.734 185.363)" fill="#215488" fill-opacity="0.44"/>
<circle cx="371.028" cy="184.326" r="4.71224" transform="rotate(-1.5 371.028 184.326)" fill="#215488" fill-opacity="0.44"/>
<circle cx="346.415" cy="186.537" r="4.71224" transform="rotate(-9 346.415 186.537)" fill="#215488" fill-opacity="0.44"/>
<circle cx="322.315" cy="191.958" r="4.71224" transform="rotate(-16.5 322.315 191.958)" fill="#215488" fill-opacity="0.44"/>
<circle cx="299.141" cy="200.496" r="4.71224" transform="rotate(-24 299.141 200.496)" fill="#215488" fill-opacity="0.44"/>
<circle cx="256.445" cy="193.236" r="4.31955" transform="rotate(-33.6667 256.445 193.236)" fill="#215488" fill-opacity="0.44"/>
<circle cx="234.984" cy="205.003" r="4.31955" transform="rotate(-40.3333 234.984 205.003)" fill="#215488" fill-opacity="0.44"/>
<circle cx="215.468" cy="219.122" r="4.31955" transform="rotate(-47 215.468 219.122)" fill="#215488" fill-opacity="0.44"/>
<circle cx="198.13" cy="235.338" r="4.31955" transform="rotate(-53.6667 198.13 235.338)" fill="#215488" fill-opacity="0.44"/>
<circle cx="183.203" cy="253.43" r="4.31955" transform="rotate(-60.3333 183.203 253.43)" fill="#215488" fill-opacity="0.44"/>
<circle cx="170.889" cy="273.154" r="4.31955" transform="rotate(-67 170.889 273.154)" fill="#215488" fill-opacity="0.44"/>
<circle cx="161.355" cy="294.244" r="4.31955" transform="rotate(-73.6667 161.355 294.244)" fill="#215488" fill-opacity="0.44"/>
<circle cx="154.73" cy="316.413" r="4.31955" transform="rotate(-80.3333 154.73 316.413)" fill="#215488" fill-opacity="0.44"/>
<circle cx="151.103" cy="339.364" r="4.31955" transform="rotate(-87 151.103 339.364)" fill="#215488" fill-opacity="0.44"/>
<circle cx="150.523" cy="362.785" r="4.31955" transform="rotate(-93.6667 150.523 362.785)" fill="#215488" fill-opacity="0.44"/>
<circle cx="152.999" cy="386.358" r="4.31955" transform="rotate(-100.333 152.999 386.358)" fill="#215488" fill-opacity="0.44"/>
<circle cx="158.497" cy="409.767" r="4.31955" transform="rotate(-107 158.497 409.767)" fill="#215488" fill-opacity="0.44"/>
<circle cx="166.941" cy="432.693" r="4.31955" transform="rotate(-113.667 166.941 432.693)" fill="#215488" fill-opacity="0.44"/>
<circle cx="176.668" cy="455.535" r="4.31955" transform="rotate(-120.333 176.668 455.535)" fill="#215488" fill-opacity="0.44"/>
<circle cx="188.705" cy="477.394" r="4.31955" transform="rotate(-127 188.705 477.394)" fill="#215488" fill-opacity="0.44"/>
<circle cx="200.654" cy="499.193" r="4.31955" transform="rotate(-133.667 200.654 499.193)" fill="#215488" fill-opacity="0.44"/>
<circle cx="216.336" cy="518.611" r="4.31955" transform="rotate(-140.333 216.336 518.611)" fill="#215488" fill-opacity="0.44"/>
<circle cx="234.184" cy="536.075" r="4.31955" transform="rotate(-147 234.184 536.075)" fill="#215488" fill-opacity="0.44"/>
<circle cx="253.954" cy="551.349" r="4.31955" transform="rotate(-153.667 253.954 551.349)" fill="#215488" fill-opacity="0.44"/>
<circle cx="275.382" cy="564.226" r="4.31955" transform="rotate(-160.333 275.382 564.226)" fill="#215488" fill-opacity="0.44"/>
<circle cx="298.176" cy="574.532" r="4.31955" transform="rotate(-167 298.176 574.532)" fill="#215488" fill-opacity="0.44"/>
<circle cx="322.029" cy="582.129" r="4.31955" transform="rotate(-173.667 322.029 582.129)" fill="#215488" fill-opacity="0.44"/>
<circle cx="346.617" cy="586.912" r="4.31955" transform="rotate(179.667 346.617 586.912)" fill="#215488" fill-opacity="0.44"/>
<circle cx="371.609" cy="588.818" r="4.31955" transform="rotate(173 371.609 588.818)" fill="#215488" fill-opacity="0.44"/>
<circle cx="396.666" cy="587.82" r="4.31955" transform="rotate(166.333 396.666 587.82)" fill="#215488" fill-opacity="0.44"/>
<circle cx="421.45" cy="583.932" r="4.31955" transform="rotate(159.667 421.45 583.932)" fill="#215488" fill-opacity="0.44"/>
<circle cx="445.626" cy="577.208" r="4.31955" transform="rotate(153 445.626 577.208)" fill="#215488" fill-opacity="0.44"/>
<circle cx="467.124" cy="564.642" r="4.31955" transform="rotate(146.333 467.124 564.642)" fill="#215488" fill-opacity="0.44"/>
<circle cx="487.396" cy="549.501" r="4.31955" transform="rotate(139.667 487.396 549.501)" fill="#215488" fill-opacity="0.44"/>
<circle cx="506.167" cy="531.987" r="4.31955" transform="rotate(133 506.167 531.987)" fill="#215488" fill-opacity="0.44"/>
<circle cx="523.185" cy="512.339" r="4.31955" transform="rotate(126.333 523.185 512.339)" fill="#215488" fill-opacity="0.44"/>
<circle cx="538.217" cy="490.821" r="4.31955" transform="rotate(119.667 538.217 490.821)" fill="#215488" fill-opacity="0.44"/>
<circle cx="551.062" cy="467.726" r="4.31955" transform="rotate(113 551.062 467.726)" fill="#215488" fill-opacity="0.44"/>
<circle cx="561.547" cy="443.365" r="4.31955" transform="rotate(106.333 561.547 443.365)" fill="#215488" fill-opacity="0.44"/>
<circle cx="569.527" cy="418.067" r="4.31955" transform="rotate(99.6667 569.527 418.067)" fill="#215488" fill-opacity="0.44"/>
<circle cx="574.896" cy="392.174" r="4.31955" transform="rotate(93 574.896 392.174)" fill="#215488" fill-opacity="0.44"/>
<circle cx="577.583" cy="366.039" r="4.31955" transform="rotate(86.3333 577.583 366.039)" fill="#215488" fill-opacity="0.44"/>
<circle cx="577.548" cy="340.012" r="4.31955" transform="rotate(79.6667 577.548 340.012)" fill="#215488" fill-opacity="0.44"/>
<circle cx="574.794" cy="314.446" r="4.31955" transform="rotate(73 574.794 314.446)" fill="#215488" fill-opacity="0.44"/>
<circle cx="569.358" cy="289.689" r="4.31955" transform="rotate(66.3333 569.358 289.689)" fill="#215488" fill-opacity="0.44"/>
<circle cx="559.697" cy="266.813" r="4.31955" transform="rotate(59.6667 559.697 266.813)" fill="#215488" fill-opacity="0.44"/>
<circle cx="545.941" cy="246.13" r="4.31955" transform="rotate(53 545.941 246.13)" fill="#215488" fill-opacity="0.44"/>
<circle cx="529.893" cy="227.177" r="4.31955" transform="rotate(46.3333 529.893 227.177)" fill="#215488" fill-opacity="0.44"/>
<circle cx="511.93" cy="210.131" r="4.31955" transform="rotate(39.6667 511.93 210.131)" fill="#215488" fill-opacity="0.44"/>
<circle cx="492.354" cy="195.19" r="4.31955" transform="rotate(33 492.354 195.19)" fill="#215488" fill-opacity="0.44"/>
<circle cx="470.8" cy="182.878" r="4.31955" transform="rotate(26.3333 470.8 182.878)" fill="#215488" fill-opacity="0.44"/>
<circle cx="447.971" cy="173.152" r="4.31955" transform="rotate(19.6667 447.971 173.152)" fill="#215488" fill-opacity="0.44"/>
<circle cx="424.175" cy="166.144" r="4.31955" transform="rotate(13 424.175 166.144)" fill="#215488" fill-opacity="0.44"/>
<circle cx="399.733" cy="161.948" r="4.31955" transform="rotate(6.33333 399.733 161.948)" fill="#215488" fill-opacity="0.44"/>
<circle cx="374.976" cy="160.622" r="4.31955" transform="rotate(-0.333334 374.976 160.622)" fill="#215488" fill-opacity="0.44"/>
<circle cx="350.239" cy="162.183" r="4.31955" transform="rotate(-7 350.239 162.183)" fill="#215488" fill-opacity="0.44"/>
<circle cx="325.856" cy="166.611" r="4.31955" transform="rotate(-13.6667 325.856 166.611)" fill="#215488" fill-opacity="0.44"/>
<circle cx="302.158" cy="173.844" r="4.31955" transform="rotate(-20.3333 302.158 173.844)" fill="#215488" fill-opacity="0.44"/>
<circle cx="279.464" cy="183.786" r="4.31955" transform="rotate(-27 279.464 183.786)" fill="#215488" fill-opacity="0.44"/>
<circle cx="235.212" cy="179.084" r="3.92687" transform="rotate(-36 235.212 179.084)" fill="#215488" fill-opacity="0.44"/>
<circle cx="214.318" cy="191.936" r="3.92687" transform="rotate(-42 214.318 191.936)" fill="#215488" fill-opacity="0.44"/>
<circle cx="194.799" cy="206.089" r="3.92687" transform="rotate(-48 194.799 206.089)" fill="#215488" fill-opacity="0.44"/>
<circle cx="177.471" cy="222.433" r="3.92687" transform="rotate(-54 177.471 222.433)" fill="#215488" fill-opacity="0.44"/>
<circle cx="162.325" cy="240.438" r="3.92687" transform="rotate(-60 162.325 240.438)" fill="#215488" fill-opacity="0.44"/>
<circle cx="149.523" cy="259.908" r="3.92687" transform="rotate(-66 149.523 259.908)" fill="#215488" fill-opacity="0.44"/>
<circle cx="139.209" cy="280.63" r="3.92687" transform="rotate(-72 139.209 280.63)" fill="#215488" fill-opacity="0.44"/>
<circle cx="131.493" cy="302.375" r="3.92687" transform="rotate(-78 131.493 302.375)" fill="#215488" fill-opacity="0.44"/>
<circle cx="126.461" cy="324.907" r="3.92687" transform="rotate(-84 126.461 324.907)" fill="#215488" fill-opacity="0.44"/>
<circle cx="124.168" cy="347.978" r="3.92687" transform="rotate(-90 124.168 347.978)" fill="#215488" fill-opacity="0.44"/>
<circle cx="124.639" cy="371.336" r="3.92687" transform="rotate(-96 124.639 371.336)" fill="#215488" fill-opacity="0.44"/>
<circle cx="127.869" cy="394.724" r="3.92687" transform="rotate(-102 127.869 394.724)" fill="#215488" fill-opacity="0.44"/>
<circle cx="133.822" cy="417.887" r="3.92687" transform="rotate(-108 133.822 417.887)" fill="#215488" fill-opacity="0.44"/>
<circle cx="142.434" cy="440.57" r="3.92687" transform="rotate(-114 142.434 440.57)" fill="#215488" fill-opacity="0.44"/>
<circle cx="153.609" cy="462.525" r="3.92687" transform="rotate(-120 153.609 462.525)" fill="#215488" fill-opacity="0.44"/>
<circle cx="164.041" cy="485.282" r="3.92687" transform="rotate(-126 164.041 485.282)" fill="#215488" fill-opacity="0.44"/>
<circle cx="177.149" cy="506.619" r="3.92687" transform="rotate(-132 177.149 506.619)" fill="#215488" fill-opacity="0.44"/>
<circle cx="191.745" cy="526.906" r="3.92687" transform="rotate(-138 191.745 526.906)" fill="#215488" fill-opacity="0.44"/>
<circle cx="208.715" cy="545.318" r="3.92687" transform="rotate(-144 208.715 545.318)" fill="#215488" fill-opacity="0.44"/>
<circle cx="227.522" cy="561.854" r="3.92687" transform="rotate(-150 227.522 561.854)" fill="#215488" fill-opacity="0.44"/>
<circle cx="247.961" cy="576.333" r="3.92687" transform="rotate(-156 247.961 576.333)" fill="#215488" fill-opacity="0.44"/>
<circle cx="269.807" cy="588.596" r="3.92687" transform="rotate(-162 269.807 588.596)" fill="#215488" fill-opacity="0.44"/>
<circle cx="292.822" cy="598.51" r="3.92687" transform="rotate(-168 292.822 598.51)" fill="#215488" fill-opacity="0.44"/>
<circle cx="316.753" cy="605.965" r="3.92687" transform="rotate(-174 316.753 605.965)" fill="#215488" fill-opacity="0.44"/>
<circle cx="341.338" cy="610.881" r="3.92687" transform="rotate(180 341.338 610.881)" fill="#215488" fill-opacity="0.44"/>
<circle cx="366.308" cy="613.202" r="3.92687" transform="rotate(174 366.308 613.202)" fill="#215488" fill-opacity="0.44"/>
<circle cx="391.389" cy="612.904" r="3.92687" transform="rotate(168 391.389 612.904)" fill="#215488" fill-opacity="0.44"/>
<circle cx="416.306" cy="609.99" r="3.92687" transform="rotate(162 416.306 609.99)" fill="#215488" fill-opacity="0.44"/>
<circle cx="440.787" cy="604.491" r="3.92687" transform="rotate(156 440.787 604.491)" fill="#215488" fill-opacity="0.44"/>
<circle cx="464.562" cy="596.468" r="3.92687" transform="rotate(150 464.562 596.468)" fill="#215488" fill-opacity="0.44"/>
<circle cx="485.499" cy="582.885" r="3.92687" transform="rotate(144 485.499 582.885)" fill="#215488" fill-opacity="0.44"/>
<circle cx="505.24" cy="567.013" r="3.92687" transform="rotate(138 505.24 567.013)" fill="#215488" fill-opacity="0.44"/>
<circle cx="523.571" cy="549.027" r="3.92687" transform="rotate(132 523.571 549.027)" fill="#215488" fill-opacity="0.44"/>
<circle cx="540.29" cy="529.126" r="3.92687" transform="rotate(126 540.29 529.126)" fill="#215488" fill-opacity="0.44"/>
<circle cx="555.213" cy="507.527" r="3.92687" transform="rotate(120 555.213 507.527)" fill="#215488" fill-opacity="0.44"/>
<circle cx="568.179" cy="484.466" r="3.92687" transform="rotate(114 568.179 484.466)" fill="#215488" fill-opacity="0.44"/>
<circle cx="579.043" cy="460.196" r="3.92687" transform="rotate(108 579.043 460.196)" fill="#215488" fill-opacity="0.44"/>
<circle cx="587.688" cy="434.983" r="3.92687" transform="rotate(102 587.688 434.983)" fill="#215488" fill-opacity="0.44"/>
<circle cx="594.018" cy="409.103" r="3.92687" transform="rotate(96 594.018 409.103)" fill="#215488" fill-opacity="0.44"/>
<circle cx="597.965" cy="382.84" r="3.92687" transform="rotate(90 597.965 382.84)" fill="#215488" fill-opacity="0.44"/>
<circle cx="599.484" cy="356.481" r="3.92687" transform="rotate(84 599.484 356.481)" fill="#215488" fill-opacity="0.44"/>
<circle cx="598.56" cy="330.316" r="3.92687" transform="rotate(78 598.56 330.316)" fill="#215488" fill-opacity="0.44"/>
<circle cx="595.202" cy="304.631" r="3.92687" transform="rotate(72 595.202 304.631)" fill="#215488" fill-opacity="0.44"/>
<circle cx="589.448" cy="279.707" r="3.92687" transform="rotate(66 589.448 279.707)" fill="#215488" fill-opacity="0.44"/>
<circle cx="581.36" cy="255.818" r="3.92687" transform="rotate(60 581.36 255.818)" fill="#215488" fill-opacity="0.44"/>
<circle cx="567.841" cy="234.995" r="3.92687" transform="rotate(54 567.841 234.995)" fill="#215488" fill-opacity="0.44"/>
<circle cx="552.225" cy="215.697" r="3.92687" transform="rotate(48 552.225 215.697)" fill="#215488" fill-opacity="0.44"/>
<circle cx="534.684" cy="198.134" r="3.92687" transform="rotate(42 534.684 198.134)" fill="#215488" fill-opacity="0.44"/>
<circle cx="515.408" cy="182.499" r="3.92687" transform="rotate(36 515.408 182.499)" fill="#215488" fill-opacity="0.44"/>
<circle cx="494.611" cy="168.965" r="3.92687" transform="rotate(30 494.611 168.965)" fill="#215488" fill-opacity="0.44"/>
<circle cx="472.518" cy="157.677" r="3.92687" transform="rotate(24 472.518 157.677)" fill="#215488" fill-opacity="0.44"/>
<circle cx="449.373" cy="148.762" r="3.92687" transform="rotate(18 449.373 148.762)" fill="#215488" fill-opacity="0.44"/>
<circle cx="425.429" cy="142.315" r="3.92687" transform="rotate(12 425.429 142.315)" fill="#215488" fill-opacity="0.44"/>
<circle cx="400.949" cy="138.409" r="3.92687" transform="rotate(6 400.949 138.409)" fill="#215488" fill-opacity="0.44"/>
<circle cx="376.2" cy="137.084" r="3.92687" fill="#215488" fill-opacity="0.44"/>
<circle cx="351.454" cy="138.357" r="3.92687" transform="rotate(-6 351.454 138.357)" fill="#215488" fill-opacity="0.44"/>
<circle cx="326.981" cy="142.213" r="3.92687" transform="rotate(-12 326.981 142.213)" fill="#215488" fill-opacity="0.44"/>
<circle cx="303.05" cy="148.609" r="3.92687" transform="rotate(-18 303.05 148.609)" fill="#215488" fill-opacity="0.44"/>
<circle cx="279.924" cy="157.477" r="3.92687" transform="rotate(-24 279.924 157.477)" fill="#215488" fill-opacity="0.44"/>
<circle cx="257.855" cy="168.719" r="3.92687" transform="rotate(-30 257.855 168.719)" fill="#215488" fill-opacity="0.44"/>
<circle cx="212.227" cy="166.757" r="3.53418" transform="rotate(-38.4545 212.227 166.757)" fill="#215488" fill-opacity="0.44"/>
<circle cx="191.974" cy="180.665" r="3.53418" transform="rotate(-43.9091 191.974 180.665)" fill="#215488" fill-opacity="0.44"/>
<circle cx="172.462" cy="194.895" r="3.53418" transform="rotate(-49.3636 172.462 194.895)" fill="#215488" fill-opacity="0.44"/>
<circle cx="155.264" cy="211.466" r="3.53418" transform="rotate(-54.8182 155.264 211.466)" fill="#215488" fill-opacity="0.44"/>
<circle cx="140.069" cy="229.51" r="3.53418" transform="rotate(-60.2727 140.069 229.51)" fill="#215488" fill-opacity="0.44"/>
<circle cx="127.015" cy="248.863" r="3.53418" transform="rotate(-65.7273 127.015 248.863)" fill="#215488" fill-opacity="0.44"/>
<circle cx="116.22" cy="269.351" r="3.53418" transform="rotate(-71.1818 116.22 269.351)" fill="#215488" fill-opacity="0.44"/>
<circle cx="107.781" cy="290.789" r="3.53418" transform="rotate(-76.6364 107.781 290.789)" fill="#215488" fill-opacity="0.44"/>
<circle cx="101.775" cy="312.98" r="3.53418" transform="rotate(-82.0909 101.775 312.98)" fill="#215488" fill-opacity="0.44"/>
<circle cx="98.257" cy="335.726" r="3.53418" transform="rotate(-87.5455 98.257 335.726)" fill="#215488" fill-opacity="0.44"/>
<circle cx="97.2579" cy="358.819" r="3.53418" transform="rotate(-93 97.2579 358.819)" fill="#215488" fill-opacity="0.44"/>
<circle cx="98.7877" cy="382.051" r="3.53418" transform="rotate(-98.4545 98.7877 382.051)" fill="#215488" fill-opacity="0.44"/>
<circle cx="102.832" cy="405.21" r="3.53418" transform="rotate(-103.909 102.832 405.21)" fill="#215488" fill-opacity="0.44"/>
<circle cx="109.353" cy="428.089" r="3.53418" transform="rotate(-109.364 109.353 428.089)" fill="#215488" fill-opacity="0.44"/>
<circle cx="118.294" cy="450.478" r="3.53418" transform="rotate(-114.818 118.294 450.478)" fill="#215488" fill-opacity="0.44"/>
<circle cx="129.573" cy="472.176" r="3.53418" transform="rotate(-120.273 129.573 472.176)" fill="#215488" fill-opacity="0.44"/>
<circle cx="141.505" cy="493.983" r="3.53418" transform="rotate(-125.727 141.505 493.983)" fill="#215488" fill-opacity="0.44"/>
<circle cx="154.231" cy="515.536" r="3.53418" transform="rotate(-131.182 154.231 515.536)" fill="#215488" fill-opacity="0.44"/>
<circle cx="168.36" cy="536.205" r="3.53418" transform="rotate(-136.636 168.36 536.205)" fill="#215488" fill-opacity="0.44"/>
<circle cx="184.691" cy="555.2" r="3.53418" transform="rotate(-142.091 184.691 555.2)" fill="#215488" fill-opacity="0.44"/>
<circle cx="202.758" cy="572.555" r="3.53418" transform="rotate(-147.545 202.758 572.555)" fill="#215488" fill-opacity="0.44"/>
<circle cx="222.399" cy="588.114" r="3.53418" transform="rotate(-153 222.399 588.114)" fill="#215488" fill-opacity="0.44"/>
<circle cx="243.568" cy="601.825" r="3.53418" transform="rotate(-158.455 243.568 601.825)" fill="#215488" fill-opacity="0.44"/>
<circle cx="265.816" cy="613.381" r="3.53418" transform="rotate(-163.909 265.816 613.381)" fill="#215488" fill-opacity="0.44"/>
<circle cx="289.066" cy="622.77" r="3.53418" transform="rotate(-169.364 289.066 622.77)" fill="#215488" fill-opacity="0.44"/>
<circle cx="313.108" cy="629.908" r="3.53418" transform="rotate(-174.818 313.108 629.908)" fill="#215488" fill-opacity="0.44"/>
<circle cx="337.722" cy="634.729" r="3.53418" transform="rotate(179.727 337.722 634.729)" fill="#215488" fill-opacity="0.44"/>
<circle cx="362.687" cy="637.19" r="3.53418" transform="rotate(174.273 362.687 637.19)" fill="#215488" fill-opacity="0.44"/>
<circle cx="387.777" cy="637.268" r="3.53418" transform="rotate(168.818 387.777 637.268)" fill="#215488" fill-opacity="0.44"/>
<circle cx="412.765" cy="634.964" r="3.53418" transform="rotate(163.364 412.765 634.964)" fill="#215488" fill-opacity="0.44"/>
<circle cx="437.423" cy="630.297" r="3.53418" transform="rotate(157.909 437.423 630.297)" fill="#215488" fill-opacity="0.44"/>
<circle cx="461.529" cy="623.31" r="3.53418" transform="rotate(152.455 461.529 623.31)" fill="#215488" fill-opacity="0.44"/>
<circle cx="484.866" cy="614.067" r="3.53418" transform="rotate(147 484.866 614.067)" fill="#215488" fill-opacity="0.44"/>
<circle cx="505.124" cy="599.505" r="3.53418" transform="rotate(141.545 505.124 599.505)" fill="#215488" fill-opacity="0.44"/>
<circle cx="524.218" cy="582.903" r="3.53418" transform="rotate(136.091 524.218 582.903)" fill="#215488" fill-opacity="0.44"/>
<circle cx="541.973" cy="564.409" r="3.53418" transform="rotate(130.636 541.973 564.409)" fill="#215488" fill-opacity="0.44"/>
<circle cx="558.229" cy="544.192" r="3.53418" transform="rotate(125.182 558.229 544.192)" fill="#215488" fill-opacity="0.44"/>
<circle cx="572.84" cy="522.436" r="3.53418" transform="rotate(119.727 572.84 522.436)" fill="#215488" fill-opacity="0.44"/>
<circle cx="585.671" cy="499.336" r="3.53418" transform="rotate(114.273 585.671 499.336)" fill="#215488" fill-opacity="0.44"/>
<circle cx="596.608" cy="475.102" r="3.53418" transform="rotate(108.818 596.608 475.102)" fill="#215488" fill-opacity="0.44"/>
<circle cx="605.551" cy="449.953" r="3.53418" transform="rotate(103.364 605.551 449.953)" fill="#215488" fill-opacity="0.44"/>
<circle cx="612.419" cy="424.118" r="3.53418" transform="rotate(97.9091 612.419 424.118)" fill="#215488" fill-opacity="0.44"/>
<circle cx="617.15" cy="397.83" r="3.53418" transform="rotate(92.4545 617.15 397.83)" fill="#215488" fill-opacity="0.44"/>
<circle cx="619.702" cy="371.328" r="3.53418" transform="rotate(87 619.702 371.328)" fill="#215488" fill-opacity="0.44"/>
<circle cx="620.049" cy="344.851" r="3.53418" transform="rotate(81.5455 620.049 344.851)" fill="#215488" fill-opacity="0.44"/>
<circle cx="618.191" cy="318.639" r="3.53418" transform="rotate(76.0909 618.191 318.639)" fill="#215488" fill-opacity="0.44"/>
<circle cx="614.145" cy="292.929" r="3.53418" transform="rotate(70.6364 614.145 292.929)" fill="#215488" fill-opacity="0.44"/>
<circle cx="607.945" cy="267.955" r="3.53418" transform="rotate(65.1818 607.945 267.955)" fill="#215488" fill-opacity="0.44"/>
<circle cx="599.649" cy="243.942" r="3.53418" transform="rotate(59.7273 599.649 243.942)" fill="#215488" fill-opacity="0.44"/>
<circle cx="587.733" cy="222.119" r="3.53418" transform="rotate(54.2727 587.733 222.119)" fill="#215488" fill-opacity="0.44"/>
<circle cx="572.305" cy="202.686" r="3.53418" transform="rotate(48.8182 572.305 202.686)" fill="#215488" fill-opacity="0.44"/>
<circle cx="555.103" cy="184.805" r="3.53418" transform="rotate(43.3636 555.103 184.805)" fill="#215488" fill-opacity="0.44"/>
<circle cx="536.284" cy="168.638" r="3.53418" transform="rotate(37.9091 536.284 168.638)" fill="#215488" fill-opacity="0.44"/>
<circle cx="516.017" cy="154.332" r="3.53418" transform="rotate(32.4545 516.017 154.332)" fill="#215488" fill-opacity="0.44"/>
<circle cx="494.486" cy="142.017" r="3.53418" transform="rotate(27 494.486 142.017)" fill="#215488" fill-opacity="0.44"/>
<circle cx="471.886" cy="131.804" r="3.53418" transform="rotate(21.5455 471.886 131.804)" fill="#215488" fill-opacity="0.44"/>
<circle cx="448.422" cy="123.785" r="3.53418" transform="rotate(16.0909 448.422 123.785)" fill="#215488" fill-opacity="0.44"/>
<circle cx="424.306" cy="118.033" r="3.53418" transform="rotate(10.6364 424.306 118.033)" fill="#215488" fill-opacity="0.44"/>
<circle cx="399.756" cy="114.601" r="3.53418" transform="rotate(5.18182 399.756 114.601)" fill="#215488" fill-opacity="0.44"/>
<circle cx="374.995" cy="113.519" r="3.53418" transform="rotate(-0.272725 374.995 113.519)" fill="#215488" fill-opacity="0.44"/>
<circle cx="350.248" cy="114.797" r="3.53418" transform="rotate(-5.72727 350.248 114.797)" fill="#215488" fill-opacity="0.44"/>
<circle cx="325.738" cy="118.423" r="3.53418" transform="rotate(-11.1818 325.738 118.423)" fill="#215488" fill-opacity="0.44"/>
<circle cx="301.687" cy="124.365" r="3.53418" transform="rotate(-16.6364 301.687 124.365)" fill="#215488" fill-opacity="0.44"/>
<circle cx="278.313" cy="132.57" r="3.53418" transform="rotate(-22.0909 278.313 132.57)" fill="#215488" fill-opacity="0.44"/>
<circle cx="255.828" cy="142.961" r="3.53418" transform="rotate(-27.5455 255.828 142.961)" fill="#215488" fill-opacity="0.44"/>
<circle cx="234.435" cy="155.446" r="3.53418" transform="rotate(-33 234.435 155.446)" fill="#215488" fill-opacity="0.44"/>
</svg>
